<svg xmlns="http://www.w3.org/2000/svg" version="1.1" xmlns:xlink="http://www.w3.org/1999/xlink" xmlns:svgjs="http://svgjs.dev/svgjs" width="128" height="128" viewBox="0 0 128 128"><g transform="matrix(0.8046875,0,0,0.8046875,12.5,12.5)"><svg viewBox="0 0 200 200" data-background-color="#060938" preserveAspectRatio="xMidYMid meet" height="128" width="128" xmlns="http://www.w3.org/2000/svg" xmlns:xlink="http://www.w3.org/1999/xlink"><g id="tight-bounds" transform="matrix(1,0,0,1,0,0)"><svg viewBox="0 0 200 200" height="200" width="200"><rect width="200" height="200" fill="url(#08af10f9-0edc-4af5-ad15-1bd7c3ef3bd1)" mask="url(#a6d19388-63cd-4a12-af66-034b790653ea)" data-fill-palette-color="tertiary"></rect><g><svg></svg></g><g><svg viewBox="0 0 200 200" height="200" width="200"><g><path transform="translate(100,100) scale(100,100)" d="M-1 0c0-0.552 0.448-1 1-1 0.552 0 1 0.448 1 1 0 0.552-0.448 1-1 1-0.552 0-1-0.448-1-1z" fill="url(#08af10f9-0edc-4af5-ad15-1bd7c3ef3bd1)" fill-rule="nonzero" stroke="none" stroke-width="1" stroke-linecap="butt" stroke-linejoin="miter" stroke-miterlimit="10" stroke-dasharray="" stroke-dashoffset="0" font-family="none" font-weight="none" font-size="none" text-anchor="none" style="mix-blend-mode: normal" data-fill-palette-color="tertiary"></path></g><g transform="matrix(1,0,0,1,85.03931525112249,80.9038)"><svg viewBox="0 0 29.921369497755013 38.1924" height="38.1924" width="29.921369497755013"><g><svg viewBox="0 0 29.921369497755013 38.1924" height="38.1924" width="29.921369497755013"><g><svg viewBox="0 0 29.921369497755013 38.1924" height="38.1924" width="29.921369497755013"><g id="textblocktransform"><svg viewBox="0 0 29.921369497755013 38.1924" height="38.1924" width="29.921369497755013" id="textblock"><g><svg viewBox="0 0 29.921369497755013 38.1924" height="38.1924" width="29.921369497755013"><g><svg viewBox="0 0 29.921369497755013 38.1924" height="38.1924" width="29.921369497755013"><g><svg xmlns="http://www.w3.org/2000/svg" xmlns:xlink="http://www.w3.org/1999/xlink" version="1.1" x="0" y="0" viewBox="18.318513270046747 5.169998751810251 70.24269542517085 89.65956992568738" enable-background="new 0 0 100 100" xml:space="preserve" height="38.1924" width="29.921369497755013" class="icon-icon-0" data-fill-palette-color="quaternary" id="icon-0"><circle cx="41.398" cy="22.345" r="8.1" fill="#060938" data-fill-palette-color="quaternary"></circle><path d="M40.738 43.392h25.721c1.833 0 3.333-1.5 3.333-3.333s-1.5-3.333-3.333-3.333h-24.21c-0.129-2.019-1.503-3.836-3.557-4.389-2.577-0.694-5.253 0.846-5.947 3.423L18.485 88.693c-0.694 2.577 0.846 5.253 3.423 5.947 2.577 0.694 5.253-0.846 5.947-3.423l3.943-14.637 3.894 14.645c0.686 2.579 3.357 4.128 5.936 3.442 2.579-0.686 4.128-3.357 3.442-5.936l-8.219-30.908L40.738 43.392z" fill="#060938" data-fill-palette-color="quaternary"></path><path d="M84.348 6.555l0 0.304c-0.001 0.733-0.601 1.333-1.335 1.332L37.266 8.141c-0.733-0.001-1.333-0.601-1.332-1.335l0-0.304c0.001-0.733 0.601-1.333 1.335-1.332L83.016 5.22C83.75 5.221 84.349 5.821 84.348 6.555z" fill="#060938" data-fill-palette-color="quaternary"></path><g fill="#060938" data-fill-palette-color="quaternary"><path d="M78.186 24.423V6.794h-1.114v18.251C77.418 24.688 77.797 24.485 78.186 24.423z" fill="#060938" data-fill-palette-color="quaternary"></path></g><path d="M32.408 22.345c0-3.247 1.727-6.084 4.308-7.664l2.06-7.638c0.213-0.789-0.259-1.608-1.047-1.821-0.789-0.213-1.608 0.259-1.821 1.047L20.193 64.531c-0.213 0.789 0.259 1.608 1.047 1.821 0.789 0.213 1.608-0.259 1.821-1.047l10.431-38.675C32.801 25.356 32.408 23.896 32.408 22.345z" fill="#060938" data-fill-palette-color="quaternary"></path><path d="M88.551 30.629l-0.868-8.144c-0.208-1.951-1.36-4.967-4.304-4.967H83.37 73.002h-0.009c-2.529 0-4.096 3.015-4.304 4.967l-0.868 8.144c-0.088 0.827 0.403 1.569 1.083 1.737l0.689 0.171c0.679 0.168 1.46-0.258 1.768-1.031l1.658-4.16c0.377-0.946 1.293-1.567 2.312-1.567h5.709c1.019 0 1.934 0.621 2.312 1.567l1.658 4.16c0.308 0.773 1.089 1.199 1.768 1.031l0.689-0.171C88.148 32.198 88.639 31.456 88.551 30.629zM82.169 20.498c0-0.203 0.164-0.367 0.367-0.367h0.54c0.203 0 0.367 0.164 0.367 0.367v0.591c0 0.059-0.023 0.118-0.068 0.163l-0.263 0.263c-0.169 0.169-0.442 0.169-0.611 0l-0.263-0.263c-0.045-0.045-0.067-0.104-0.067-0.163h-0.001V20.498zM71.007 20.405c0-0.534 0.433-0.966 0.966-0.966 0.534 0 0.966 0.433 0.966 0.966 0 0.534-0.433 0.966-0.966 0.966C71.439 21.371 71.007 20.939 71.007 20.405zM73.976 24.574c-0.83 0-1.502-0.672-1.502-1.502 0-0.83 0.672-1.502 1.502-1.502 0.83 0 1.502 0.672 1.502 1.502C75.478 23.901 74.806 24.574 73.976 24.574zM81.8 22.725v0.001h-0.591c-0.203 0-0.367-0.164-0.367-0.367v-0.54c0-0.203 0.164-0.367 0.367-0.367H81.8c0.059 0 0.118 0.023 0.163 0.068l0.263 0.263c0.169 0.169 0.169 0.442 0 0.611l-0.263 0.263C81.918 22.702 81.859 22.725 81.8 22.725zM83.442 23.658c0 0.203-0.164 0.367-0.367 0.367h-0.54c-0.203 0-0.367-0.164-0.367-0.367v-0.591c0-0.059 0.022-0.118 0.067-0.163l0.263-0.263c0.169-0.169 0.442-0.169 0.611 0l0.263 0.263c0.045 0.045 0.067 0.104 0.067 0.163h0.001V23.658zM84.736 22.363c0 0.203-0.164 0.367-0.367 0.367h-0.591c-0.059 0-0.118-0.022-0.163-0.067l-0.263-0.263c-0.169-0.169-0.169-0.442 0-0.611l0.263-0.263c0.045-0.045 0.104-0.067 0.163-0.067v-0.001h0.591c0.203 0 0.367 0.164 0.367 0.367V22.363z" fill="#060938" data-fill-palette-color="quaternary"></path></svg></g></svg></g></svg></g></svg></g></svg></g><g></g></svg></g></svg></g></svg></g><defs></defs><mask id="a6d19388-63cd-4a12-af66-034b790653ea"><g id="SvgjsG1999"><svg viewBox="0 0 200 200" height="200" width="200"><g><svg></svg></g><g><svg viewBox="0 0 200 200" height="200" width="200"><g><path transform="translate(100,100) scale(100,100)" d="M-1 0c0-0.552 0.448-1 1-1 0.552 0 1 0.448 1 1 0 0.552-0.448 1-1 1-0.552 0-1-0.448-1-1z" fill="white" fill-rule="nonzero" stroke="none" stroke-width="1" stroke-linecap="butt" stroke-linejoin="miter" stroke-miterlimit="10" stroke-dasharray="" stroke-dashoffset="0" font-family="none" font-weight="none" font-size="none" text-anchor="none" style="mix-blend-mode: normal"></path></g><g transform="matrix(1,0,0,1,85.03931525112249,80.9038)"><svg viewBox="0 0 29.921369497755013 38.1924" height="38.1924" width="29.921369497755013"><g><svg viewBox="0 0 29.921369497755013 38.1924" height="38.1924" width="29.921369497755013"><g><svg viewBox="0 0 29.921369497755013 38.1924" height="38.1924" width="29.921369497755013"><g id="SvgjsG1998"><svg viewBox="0 0 29.921369497755013 38.1924" height="38.1924" width="29.921369497755013" id="SvgjsSvg1997"><g><svg viewBox="0 0 29.921369497755013 38.1924" height="38.1924" width="29.921369497755013"><g><svg viewBox="0 0 29.921369497755013 38.1924" height="38.1924" width="29.921369497755013"><g><svg xmlns="http://www.w3.org/2000/svg" xmlns:xlink="http://www.w3.org/1999/xlink" version="1.1" x="0" y="0" viewBox="18.318513270046747 5.169998751810251 70.24269542517085 89.65956992568738" enable-background="new 0 0 100 100" xml:space="preserve" height="38.1924" width="29.921369497755013" class="icon-icon-0" data-fill-palette-color="quaternary" id="SvgjsSvg1996"></svg></g></svg></g></svg></g></svg></g></svg></g><g></g></svg></g></svg></g></svg></g><defs><mask></mask></defs></svg></g></mask><linearGradient x1="0.054" x2="0.941" y1="0.5" y2="0.5" id="08af10f9-0edc-4af5-ad15-1bd7c3ef3bd1"><stop stop-color="#8c8c8c" offset="0"></stop><stop stop-color="#e3e4e5" offset="0.498"></stop><stop stop-color="#8c8c8c" offset="1"></stop></linearGradient></svg><rect width="200" height="200" fill="none" stroke="none" visibility="hidden"></rect></g></svg></g></svg>