<svg xmlns="http://www.w3.org/2000/svg" version="1.1" xmlns:xlink="http://www.w3.org/1999/xlink" xmlns:svgjs="http://svgjs.dev/svgjs" width="1000" height="1000" viewBox="0 0 1000 1000"><rect width="1000" height="1000" fill="#060938"></rect><g transform="matrix(0.7,0,0,0.7,150,281.25)"><svg viewBox="0 0 512 320" data-background-color="#060938" preserveAspectRatio="xMidYMid meet" height="625" width="1000" xmlns="http://www.w3.org/2000/svg" xmlns:xlink="http://www.w3.org/1999/xlink"><g id="tight-bounds" transform="matrix(1,0,0,1,0,0)"><svg viewBox="0 0 512 320" height="320" width="512"><rect width="512" height="320" fill="url(#189b5dd8-445a-470e-a867-499ae02e373c)" mask="url(#7fb9c9f9-a6bb-4840-b2ae-240274a52f81)" data-fill-palette-color="tertiary"></rect><g><svg></svg></g><g><svg viewBox="0 0 512 320" height="320" width="512"><g><path xmlns="http://www.w3.org/2000/svg" d="M96 160c0-88.366 71.634-160 160-160 88.366 0 160 71.634 160 160 0 88.366-71.634 160-160 160-88.366 0-160-71.634-160-160z" fill="url(#189b5dd8-445a-470e-a867-499ae02e373c)" fill-rule="nonzero" stroke="none" stroke-width="1" stroke-linecap="butt" stroke-linejoin="miter" stroke-miterlimit="10" stroke-dasharray="" stroke-dashoffset="0" font-family="none" font-weight="none" font-size="none" text-anchor="none" style="mix-blend-mode: normal" data-fill-palette-color="tertiary"></path></g><g transform="matrix(1,0,0,1,116,20)"><svg viewBox="0 0 280 280" height="280" width="280"><g><svg viewBox="0 0 280 280" height="280" width="280"><g><svg viewBox="0 0 280 280" height="280" width="280"><g id="textblocktransform"><svg viewBox="0 0 280 280" height="280" width="280" id="textblock"><g><svg viewBox="0 0 280 280" height="280" width="280"><g transform="matrix(1,0,0,1,88.2957450385794,74.00336708925556)"><svg viewBox="0 0 103.4085099228412 131.99326582148888" height="131.99326582148888" width="103.4085099228412"><g><svg xmlns="http://www.w3.org/2000/svg" xmlns:xlink="http://www.w3.org/1999/xlink" version="1.1" x="0" y="0" viewBox="18.318513870239258 5.169998645782471 70.2426986694336 89.65957641601562" enable-background="new 0 0 100 100" xml:space="preserve" height="131.99326582148888" width="103.4085099228412" class="icon-o-0" data-fill-palette-color="quaternary" id="o-0"><circle cx="41.398" cy="22.345" r="8.1" fill="#060938" data-fill-palette-color="quaternary"></circle><path d="M40.738 43.392h25.721c1.833 0 3.333-1.5 3.333-3.333s-1.5-3.333-3.333-3.333h-24.21c-0.129-2.019-1.503-3.836-3.557-4.389-2.577-0.694-5.253 0.846-5.947 3.423L18.485 88.693c-0.694 2.577 0.846 5.253 3.423 5.947 2.577 0.694 5.253-0.846 5.947-3.423l3.943-14.637 3.894 14.645c0.686 2.579 3.357 4.128 5.936 3.442 2.579-0.686 4.128-3.357 3.442-5.936l-8.219-30.908L40.738 43.392z" fill="#060938" data-fill-palette-color="quaternary"></path><path d="M84.348 6.555l0 0.304c-0.001 0.733-0.601 1.333-1.335 1.332L37.266 8.141c-0.733-0.001-1.333-0.601-1.332-1.335l0-0.304c0.001-0.733 0.601-1.333 1.335-1.332L83.016 5.22C83.75 5.221 84.349 5.821 84.348 6.555z" fill="#060938" data-fill-palette-color="quaternary"></path><g fill="#060938" data-fill-palette-color="quaternary"><path d="M78.186 24.423V6.794h-1.114v18.251C77.418 24.688 77.797 24.485 78.186 24.423z" fill="#060938" data-fill-palette-color="quaternary"></path></g><path d="M32.408 22.345c0-3.247 1.727-6.084 4.308-7.664l2.06-7.638c0.213-0.789-0.259-1.608-1.047-1.821-0.789-0.213-1.608 0.259-1.821 1.047L20.193 64.531c-0.213 0.789 0.259 1.608 1.047 1.821 0.789 0.213 1.608-0.259 1.821-1.047l10.431-38.675C32.801 25.356 32.408 23.896 32.408 22.345z" fill="#060938" data-fill-palette-color="quaternary"></path><path d="M88.551 30.629l-0.868-8.144c-0.208-1.951-1.36-4.967-4.304-4.967H83.37 73.002h-0.009c-2.529 0-4.096 3.015-4.304 4.967l-0.868 8.144c-0.088 0.827 0.403 1.569 1.083 1.737l0.689 0.171c0.679 0.168 1.46-0.258 1.768-1.031l1.658-4.16c0.377-0.946 1.293-1.567 2.312-1.567h5.709c1.019 0 1.934 0.621 2.312 1.567l1.658 4.16c0.308 0.773 1.089 1.199 1.768 1.031l0.689-0.171C88.148 32.198 88.639 31.456 88.551 30.629zM82.169 20.498c0-0.203 0.164-0.367 0.367-0.367h0.54c0.203 0 0.367 0.164 0.367 0.367v0.591c0 0.059-0.023 0.118-0.068 0.163l-0.263 0.263c-0.169 0.169-0.442 0.169-0.611 0l-0.263-0.263c-0.045-0.045-0.067-0.104-0.067-0.163h-0.001V20.498zM71.007 20.405c0-0.534 0.433-0.966 0.966-0.966 0.534 0 0.966 0.433 0.966 0.966 0 0.534-0.433 0.966-0.966 0.966C71.439 21.371 71.007 20.939 71.007 20.405zM73.976 24.574c-0.83 0-1.502-0.672-1.502-1.502 0-0.83 0.672-1.502 1.502-1.502 0.83 0 1.502 0.672 1.502 1.502C75.478 23.901 74.806 24.574 73.976 24.574zM81.8 22.725v0.001h-0.591c-0.203 0-0.367-0.164-0.367-0.367v-0.54c0-0.203 0.164-0.367 0.367-0.367H81.8c0.059 0 0.118 0.023 0.163 0.068l0.263 0.263c0.169 0.169 0.169 0.442 0 0.611l-0.263 0.263C81.918 22.702 81.859 22.725 81.8 22.725zM83.442 23.658c0 0.203-0.164 0.367-0.367 0.367h-0.54c-0.203 0-0.367-0.164-0.367-0.367v-0.591c0-0.059 0.022-0.118 0.067-0.163l0.263-0.263c0.169-0.169 0.442-0.169 0.611 0l0.263 0.263c0.045 0.045 0.067 0.104 0.067 0.163h0.001V23.658zM84.736 22.363c0 0.203-0.164 0.367-0.367 0.367h-0.591c-0.059 0-0.118-0.022-0.163-0.067l-0.263-0.263c-0.169-0.169-0.169-0.442 0-0.611l0.263-0.263c0.045-0.045 0.104-0.067 0.163-0.067v-0.001h0.591c0.203 0 0.367 0.164 0.367 0.367V22.363z" fill="#060938" data-fill-palette-color="quaternary"></path></svg></g></svg></g><g><path d="M6.452 93.795l18.917 6.959 2.485-6.754 4.717 1.735-3.644 9.909-6.453 2.982-14.2-5.224-2.982-6.452zM23.199 95.223l-4.689-1.724 3.976-10.809 13.11 4.823-2.568 6.981-8.421-3.098zM13.783 88.426l-2.153 5.854-4.718-1.735 3.53-9.596 6.237-2.395 2.368 0.871-2.896 7.872z" fill="#060938" data-fill-palette-color="quaternary"></path><path d="M48.643 68.964l-2.865-0.729-4.776 6.699-3.046-4.317 2.643-3.706-18.116-4.635 4.752-6.666 26.329 6.45zM33.191 66.451l8.754 11.907-4.705 6.599-14.355-21.28z" fill="#060938" data-fill-palette-color="quaternary"></path><path d="M67.642 50.292l-27.527-9.965 6.883-5.662 12.333 4.349-1.683-10.404 8.053 9.79zM79.747 40.334l-6.477 5.328-15.999-19.448 6.478-5.328zM62.146 54.812l-6.049 4.976-14.517-17.647 14.404 5.181z" fill="#060938" data-fill-palette-color="quaternary"></path><path d="M95.534 22.096l-7.346 3.231 4.165 9.47-7.677 3.377-10.139-23.053 7.678-3.376 4.019 9.137 7.345-3.23zM90.174 13.57l-4.777 2.101-1.962-4.463 12.002-5.278 2.933 6.671-7.225 3.177zM105.575 28.982l-12.002 5.278-2.024-4.601 4.324-1.901-1.015-2.31 7.677-3.377z" fill="#060938" data-fill-palette-color="quaternary"></path><path d="M118.973 26.629l-8.275 1.373-4.121-24.844 8.275-1.372zM123.202 5.496l-6.213 1.03-0.823-4.958 9.449-1.568 5.802 4.133 1.237 7.458-3.181 4.446-0.355-0.473-7.596 2.314 0.407 0.608-2.877 0.477-0.798-4.809 6.213-1.031zM129.473 16.037l6.089 7.84-8.842 1.467-4.791-6.858 6.572-1.091z" fill="#060938" data-fill-palette-color="quaternary"></path><path d="M165.383 1.791l-3.83 19.789 7.065 1.368-0.955 4.935-10.365-2.006-3.98-5.89 2.875-14.855 5.89-3.979zM166.663 18.55l0.95-4.905 11.306 2.188-2.654 13.715-7.304-1.414 1.706-8.809zM171.86 8.165l-6.124-1.186 0.955-4.935 10.039 1.943 3.365 5.772-0.48 2.477-8.234-1.594z" fill="#060938" data-fill-palette-color="quaternary"></path><path d="M196.718 16.937l-6.424 13.497 2.843 1.354-2.204 4.629-5.832-2.776-2.442-6.729 6.502-13.662 6.763-2.347 5.833 2.776-2.195 4.611zM197.229 33.735l6.425-13.497-2.899-1.379 2.196-4.612 5.878 2.798 2.433 6.725-6.503 13.661-6.754 2.353-5.878-2.798 2.204-4.63z" fill="#060938" data-fill-palette-color="quaternary"></path><path d="M225.433 34.616l-9.533 11.515 2.426 2.008-3.269 3.95-4.976-4.119-0.721-7.123 9.648-11.654 7.131-0.622 4.976 4.119-3.257 3.935zM221.817 51.029l9.532-11.515-2.472-2.046 3.257-3.934 5.015 4.151 0.713 7.116-9.648 11.654-7.124 0.628-5.015-4.151 3.27-3.95z" fill="#060938" data-fill-palette-color="quaternary"></path><path d="M239.529 79.909l-5.66-7.728 4.055-2.97 3.674 5.016 12.206-8.94-3.673-5.016 4.055-2.97 5.659 7.728-1.073 7.041-12.206 8.94zM228.126 64.339l20.317-14.879 4.956 6.766-20.317 14.88z" fill="#060938" data-fill-palette-color="quaternary"></path><path d="M251.502 106.206l-1.255-3.129 8.749-3.509-4.057-10.118 2.805-6.562 5.274-2.116 6.544 2.813 1.059 2.642-8.3 3.329 4.31 10.745-2.869 6.403-5.724 2.296zM269.404 95.393l-2.502-6.239 4.215-1.691 3.75 9.35-2.439 5.687-2.491 0.999-2.875-7.166zM248.975 86.405l2.342-0.94 3.123 7.785-2.782 1.116 2.318 5.78-4.225 1.695-3.863-9.631z" fill="#060938" data-fill-palette-color="quaternary"></path><path d="M34.808 179.77l-18.917 6.959 2.484 6.754-4.717 1.736-3.645-9.909 2.982-6.453 14.2-5.223 6.453 2.982zM21.128 189.535l4.689-1.725 3.976 10.808-13.11 4.823-2.568-6.982 8.421-3.097zM32.704 188.61l-2.153-5.854 4.717-1.735 3.53 9.596-3.198 5.865-2.368 0.871-2.896-7.872z" fill="#060938" data-fill-palette-color="quaternary"></path><path d="M32.234 226.731l1.622-2.47-4.775-6.699 5.073-1.472 2.643 3.706 10.287-15.615 4.752 6.665-14.681 22.789zM39.646 212.943l-14.11 4.395-4.705-6.6 24.797-6.634z" fill="#060938" data-fill-palette-color="quaternary"></path><path d="M54.839 249.268l4.47-28.932 6.883 5.662-1.889 12.941 9.884-3.659-8.054 9.791zM66.945 259.226l-6.478-5.329 15.998-19.448 6.478 5.329zM49.344 244.747l-6.049-4.976 14.517-17.647-2.306 15.132z" fill="#060938" data-fill-palette-color="quaternary"></path><path d="M95.751 261.407l-7.346-3.231-4.165 9.471-7.677-3.377 10.138-23.052 7.678 3.377-4.019 9.137 7.345 3.231zM98.412 251.694l-4.776-2.1 1.962-4.463 12.002 5.278-2.934 6.671-7.225-3.177zM97.462 273.461l-12.002-5.278 2.024-4.601 4.324 1.902 1.015-2.31 7.678 3.376z" fill="#060938" data-fill-palette-color="quaternary"></path><path d="M115.675 277.248l-8.275-1.373 4.122-24.843 8.274 1.373zM126.501 258.612l-6.213-1.031 0.823-4.958 9.449 1.567 4.156 5.785-1.237 7.458-4.446 3.181-0.183-0.562-7.937-0.263 0.189 0.706-2.877-0.477 0.798-4.809 6.213 1.03zM129.033 270.614l3.231 9.386-8.842-1.467-2.32-8.038 6.572 1.091z" fill="#060938" data-fill-palette-color="quaternary"></path><path d="M159.642 252.542l3.83 19.789 7.066-1.367 0.955 4.935-10.365 2.006-5.891-3.98-2.875-14.854 3.98-5.89zM167.082 267.613l-0.949-4.905 11.307-2.189 2.654 13.715-7.303 1.413-1.705-8.809zM168.029 256.039l-6.124 1.185-0.955-4.935 10.038-1.943 5.276 4.099 0.479 2.477-8.234 1.594z" fill="#060938" data-fill-palette-color="quaternary"></path><path d="M188.123 249.002l6.424 13.497 2.844-1.353 2.204 4.629-5.833 2.777-6.763-2.348-6.502-13.661 2.442-6.73 5.832-2.776 2.195 4.611zM201.483 259.198l-6.425-13.497-2.898 1.379-2.195-4.611 5.878-2.798 6.754 2.352 6.503 13.661-2.433 6.725-5.879 2.798-2.203-4.63z" fill="#060938" data-fill-palette-color="quaternary"></path><path d="M212.68 233.975l9.532 11.514 2.426-2.008 3.269 3.95-4.976 4.119-7.131-0.621-9.648-11.655 0.721-7.122 4.976-4.119 3.256 3.934zM228.129 240.591l-9.533-11.514-2.472 2.046-3.257-3.934 5.015-4.151 7.124 0.628 9.648 11.654-0.713 7.116-5.015 4.152-3.27-3.95z" fill="#060938" data-fill-palette-color="quaternary"></path><path d="M255.787 215.995l-5.66 7.728-4.055-2.97 3.674-5.016-12.207-8.94-3.673 5.016-4.056-2.97 5.66-7.728 7.037-1.101 12.207 8.94zM244.384 231.564l-20.317-14.879 4.956-6.767 20.317 14.88z" fill="#060938" data-fill-palette-color="quaternary"></path><path d="M270.206 185.292l-1.255 3.129-8.75-3.509-4.058 10.117-6.562 2.805-5.275-2.115-2.786-6.555 1.059-2.642 8.3 3.329 4.31-10.745 6.499-2.646 5.724 2.296zM249.793 180.737l-2.502 6.239-4.216-1.69 3.75-9.35 5.693-2.425 2.492 0.999-2.875 7.167zM258.349 201.351l-2.342-0.939 3.122-7.785 2.783 1.116 2.318-5.78 4.225 1.695-3.863 9.63z" fill="#060938" data-fill-palette-color="quaternary"></path><path d="M3.202 141.998c0-5.313 4.307-9.619 9.619-9.619 5.313 0 9.619 4.307 9.62 9.619 0 5.313-4.307 9.619-9.62 9.619-5.313 0-9.619-4.307-9.619-9.619z" fill="#060938" data-fill-palette-color="quaternary"></path><path d="M257.56 141.998c0-5.313 4.307-9.619 9.619-9.619 5.313 0 9.619 4.307 9.619 9.619 0 5.313-4.307 9.619-9.619 9.619-5.313 0-9.619-4.307-9.619-9.619z" fill="#060938" data-fill-palette-color="quaternary"></path></g></svg></g></svg></g></svg></g><g></g></svg></g></svg></g></svg></g><defs></defs><mask id="7fb9c9f9-a6bb-4840-b2ae-240274a52f81"><g id="SvgjsG5014"><svg viewBox="0 0 512 320" height="320" width="512"><g><svg></svg></g><g><svg viewBox="0 0 512 320" height="320" width="512"><g><path xmlns="http://www.w3.org/2000/svg" d="M96 160c0-88.366 71.634-160 160-160 88.366 0 160 71.634 160 160 0 88.366-71.634 160-160 160-88.366 0-160-71.634-160-160z" fill="white" fill-rule="nonzero" stroke="none" stroke-width="1" stroke-linecap="butt" stroke-linejoin="miter" stroke-miterlimit="10" stroke-dasharray="" stroke-dashoffset="0" font-family="none" font-weight="none" font-size="none" text-anchor="none" style="mix-blend-mode: normal"></path></g><g transform="matrix(1,0,0,1,116,20)"><svg viewBox="0 0 280 280" height="280" width="280"><g><svg viewBox="0 0 280 280" height="280" width="280"><g><svg viewBox="0 0 280 280" height="280" width="280"><g id="SvgjsG5013"><svg viewBox="0 0 280 280" height="280" width="280" id="SvgjsSvg5012"><g><svg viewBox="0 0 280 280" height="280" width="280"><g transform="matrix(1,0,0,1,88.2957450385794,74.00336708925556)"><svg viewBox="0 0 103.4085099228412 131.99326582148888" height="131.99326582148888" width="103.4085099228412"><g><svg xmlns="http://www.w3.org/2000/svg" xmlns:xlink="http://www.w3.org/1999/xlink" version="1.1" x="0" y="0" viewBox="18.318513870239258 5.169998645782471 70.2426986694336 89.65957641601562" enable-background="new 0 0 100 100" xml:space="preserve" height="131.99326582148888" width="103.4085099228412" class="icon-o-0" data-fill-palette-color="quaternary" id="SvgjsSvg5011"></svg></g></svg></g><g></g></svg></g></svg></g></svg></g><g></g></svg></g></svg></g></svg></g><defs><mask></mask></defs></svg></g></mask><linearGradient x1="0.054" x2="0.941" y1="0.5" y2="0.5" id="189b5dd8-445a-470e-a867-499ae02e373c"><stop stop-color="#8c8c8c" offset="0"></stop><stop stop-color="#e3e4e5" offset="0.498"></stop><stop stop-color="#8c8c8c" offset="1"></stop></linearGradient></svg><rect width="512" height="320" fill="none" stroke="none" visibility="hidden"></rect></g></svg></g></svg>